<svg xmlns="http://www.w3.org/2000/svg" aria-hidden="true" style="position:absolute;width:0;height:0;overflow:hidden">
  <defs>
    <symbol id="icon-menu-close" viewBox="0 0 33 32">
      <path d="m3.013.307 29.196 29.196-2.19 2.19L.823 2.497z"/>
      <path d="M.823 29.503 30.019.307l2.19 2.19L3.013 31.693z"/>
    </symbol>
    <symbol id="icon-menu" viewBox="0 0 75 32">
      <path d="M0 0h75.294v5.647H0zm0 13.176h75.294v5.647H0zm0 13.177h75.294V32H0z"/>
      <path d="M0 0h75.294v5.647H0z"/>
    </symbol>
    <symbol id="icon-logo" viewBox="0 0 52 32">
      <path d="M18.413 31.36c.254 0 .459-.074.616-.224s.235-.366.235-.65V29.03c0-.358.026-.672.078-.941s.116-.53.19-.784l4.072-14.498 3.858 14.856c.09.307.154.546.194.716l.018.079c.038.172.056.362.056.571v1.456c0 .284.078.5.235.65s.362.224.616.224h8.557c.239 0 .44-.074.605-.224s.246-.366.246-.65v-1.456c0-.298.018-.564.056-.795s.108-.542.213-.93l4.973-21.526c.239-1 .612-1.803 1.12-2.408s1.09-1.049 1.747-1.333l.538-.246c.269-.134.459-.265.571-.392s.168-.295.168-.504c0-.269-.094-.486-.28-.65s-.466-.246-.84-.246h-7.123c-.374 0-.654.082-.84.246s-.28.381-.28.65c0 .209.048.377.146.504s.25.242.459.347l.493.179c.896.328 1.497.799 1.803 1.411s.362 1.329.168 2.15l-4.428 18.789-5.182-20.648c-.106-.464-.136-.814-.088-1.048l.021-.083c.074-.232.254-.392.538-.482l.986-.269c.239-.09.414-.206.526-.347a.783.783 0 0 0 .168-.487V.893v.001c0-.284-.09-.504-.269-.661s-.456-.235-.829-.235H19.823c-.358 0-.631.078-.818.235s-.28.377-.28.661c0 .179.048.332.146.459s.258.235.482.325l.941.336c.209.074.37.194.482.358s.235.486.37.963l1.401 5.394-4.442 15.58-5.202-20.727c-.118-.392-.155-.718-.112-.978l.022-.108c.074-.276.262-.459.56-.549l1.165-.269c.403-.134.605-.403.605-.806 0-.269-.09-.482-.269-.638s-.456-.235-.829-.235H1.075c-.358 0-.627.078-.806.235S0 .604 0 .872c0 .179.045.347.134.504s.232.28.426.37l.986.314c.284.104.5.246.65.426s.276.463.381.851l6.272 24.326c.09.344.153.601.19.773s.056.37.056.594v1.456c0 .284.082.5.246.65s.374.224.627.224h8.445zm27.843.56c.956 0 1.81-.232 2.565-.694a5.119 5.119 0 0 0 1.779-1.845l.013-.025c.44-.784.661-1.632.661-2.542 0-.926-.22-1.77-.661-2.531a5.102 5.102 0 0 0-1.77-1.813l-.023-.013c-.754-.456-1.609-.683-2.565-.683-.926 0-1.766.228-2.52.683a5.104 5.104 0 0 0-1.779 1.801l-.013.024a4.972 4.972 0 0 0-.661 2.531c0 .911.22 1.758.661 2.542s1.038 1.408 1.792 1.87a4.72 4.72 0 0 0 2.52.694z"/>
    </symbol>
  </defs>
</svg>
